<?xml version="1.0" encoding="utf-8"?>
<!-- Generator: Adobe Illustrator 27.8.1, SVG Export Plug-In . SVG Version: 6.00 Build 0)  -->
<svg version="1.1" id="Laag_1" xmlns="http://www.w3.org/2000/svg" xmlns:xlink="http://www.w3.org/1999/xlink" x="0px" y="0px"
	 viewBox="0 0 642 569" style="enable-background:new 0 0 642 569;" xml:space="preserve">
<style type="text/css">
	.st0{fill:#FF0000;stroke:#FF0000;}
	.st1{fill:none;stroke:#FFFFFF;stroke-width:2.5132;}
	.st2{fill:#FFFFFF;}
</style>
<path class="st0" d="M356.4,32.4c-19.6-33.9-51.6-33.9-71.2,0l-270.3,468c-19.6,33.9-3.6,61.7,35.6,61.7h541
	c39.2,0,55.2-27.8,35.6-61.7L356.4,32.4"/>
<path class="st1" d="M356.4,32.4c-19.6-33.9-51.6-33.9-71.2,0l-270.3,468c-19.6,33.9-3.6,61.7,35.6,61.7h541
	c39.2,0,55.2-27.8,35.6-61.7L356.4,32.4z"/>
<path class="st2" d="M80.3,504l241-417.3l241,417.3L80.3,504 M613.6,511.1L340.8,38.7c-10.8-18.7-28.4-18.7-39.2,0L28.9,511.1
	c-10.8,18.7-2,33.9,19.6,33.9H594C615.5,545,624.3,529.7,613.6,511.1z"/>
<path class="st2" d="M320.5,473c18.2,0,32.9-14.7,32.9-32.9c0-18.2-14.7-32.9-32.9-32.9c-18.2,0-32.9,14.7-32.9,32.9
	C287.7,458.2,302.4,473,320.5,473"/>
<path class="st2" d="M353.2,214.1c0.2-1.6,0.2-0.3,0.2-2c0-18.2-14.7-32.9-32.9-32.9c-18.2,0-32.9,14.7-32.9,32.9c0,0.7,0,1.4,0.1,2
	h0l12.4,144h0c0.5,10.8,9.4,19.5,20.4,19.5c11.3,0,20.3-8.5,20.4-19.5c0,0,0-1,0-1.1L353.2,214.1"/>
</svg>
